<svg width="33" height="30" viewBox="0 0 33 30" fill="none" xmlns="http://www.w3.org/2000/svg">
<path d="M24.421 1.32827H32.598C32.598 1.86008 32.6101 2.39794 32.592 2.92975C32.5799 3.37091 32.5375 3.81207 32.4951 4.25323C32.4345 4.90591 32.3557 5.55859 32.2952 6.21731C32.2649 6.4953 32.2588 6.77934 32.2225 7.05129C32.1437 7.61936 32.0468 8.18139 31.962 8.74341C31.8833 9.24501 31.8227 9.75264 31.7319 10.2542C31.6652 10.6168 31.5623 10.9794 31.4835 11.342C31.3987 11.7349 31.3382 12.1337 31.2412 12.5205C31.114 12.9979 30.9566 13.4693 30.8173 13.9407C30.6295 14.5692 30.4599 15.2098 30.254 15.8322C30.0844 16.3338 29.8784 16.8173 29.6785 17.3068C29.4544 17.8446 29.2424 18.3885 28.988 18.9083C28.6973 19.5126 28.3642 20.1048 28.0371 20.691C27.7645 21.1805 27.4859 21.664 27.1709 22.1293C26.8257 22.637 26.4138 23.1023 26.0685 23.61C25.4992 24.456 24.7299 25.1208 24.0213 25.8279C23.6094 26.2388 23.1006 26.547 22.6221 26.8854C22.3011 27.1151 21.974 27.3447 21.6348 27.5381C21.1805 27.804 20.7202 28.076 20.2356 28.2814C19.6057 28.5473 18.9576 28.783 18.2974 28.9704C17.625 29.1638 16.9285 29.2665 16.2259 29.3632C15.3779 29.478 14.536 29.4478 13.694 29.4357C13.0883 29.4236 12.4887 29.2846 11.889 29.1879C11.5074 29.1275 11.1319 29.055 10.7624 28.9583C10.3627 28.8495 9.96896 28.7045 9.57525 28.5655C9.26634 28.4567 8.95743 28.3479 8.6667 28.1968C8.07916 27.8947 7.48558 27.5865 6.92227 27.2359C6.39531 26.9096 5.88046 26.5591 5.40196 26.1723C4.56609 25.4894 3.81501 24.7159 3.1548 23.8638C2.5067 23.0238 1.91916 22.1535 1.48911 21.1805C1.22261 20.5702 0.950039 19.9538 0.725929 19.3192C0.556332 18.8237 0.471533 18.2918 0.332222 17.7842C-0.0130291 16.5151 -0.0251432 15.2158 0.0172561 13.9165C0.0354271 13.3182 0.13234 12.7199 0.229252 12.1277C0.314051 11.614 0.423077 11.1063 0.562389 10.6048C0.901583 9.45048 1.31346 8.32038 1.95551 7.29302C2.31287 6.7189 2.64601 6.12666 3.06394 5.60694C3.57879 4.96634 4.16632 4.3741 4.7478 3.7879C5.0991 3.43134 5.48675 3.11709 5.88046 2.83306C6.32262 2.51276 6.78296 2.21664 7.25541 1.95073C7.86717 1.61231 8.49104 1.29805 9.12703 1.01402C9.54497 0.83272 9.99924 0.729983 10.4353 0.597031C10.7988 0.488251 11.1622 0.367385 11.5317 0.300908C12.0344 0.210259 12.5432 0.155869 13.052 0.107522C13.5911 0.0531327 14.1362 -0.019387 14.6753 0.00478621C15.4021 0.0410461 16.1229 0.149826 16.8376 0.264649C17.4373 0.361342 18.0309 0.488251 18.6123 0.657464C19.1332 0.808547 19.6481 1.00193 20.1448 1.23158C20.702 1.4854 21.2532 1.76339 21.762 2.09577C22.1133 2.32542 22.3919 2.66384 22.7008 2.95996C22.7251 2.98414 22.7311 3.04457 22.7251 3.08687C22.6766 3.91481 22.6221 4.74274 22.5676 5.57068C22.5494 5.84262 22.5434 6.11457 22.507 6.38048C22.4283 6.93042 22.3374 7.47432 22.2466 8.01822C22.1739 8.44125 22.1133 8.86428 22.0164 9.28127C21.8892 9.81308 21.7378 10.3388 21.5924 10.8707C21.4834 11.2635 21.3683 11.6563 21.2471 12.0491C21.1987 12.1941 21.1199 12.3271 21.0291 12.5084C20.9504 12.4298 20.8595 12.3634 20.805 12.2787C20.1932 11.3299 19.3755 10.5927 18.4367 9.97625C17.8128 9.57135 17.1465 9.28731 16.4379 9.08184C15.5959 8.83406 14.7358 8.74946 13.8757 8.82802C13.2337 8.88845 12.6098 9.07579 12.0162 9.35983C11.3681 9.66804 10.8109 10.0971 10.3324 10.6229C9.93867 11.052 9.61765 11.5233 9.40565 12.0612C9.23 12.5084 9.07857 12.9616 8.93926 13.4209C8.87869 13.6264 8.85446 13.85 8.86052 14.0615C8.86658 14.6779 8.83024 15.3064 8.9332 15.9108C9.02406 16.4426 9.26029 16.9502 9.47834 17.4518C9.82965 18.2435 10.3808 18.8962 11.0592 19.4219C11.4287 19.712 11.8466 19.9538 12.2767 20.1471C12.7128 20.3466 13.1913 20.4735 13.6516 20.6246C13.7243 20.6487 13.8152 20.6427 13.8939 20.6427C14.3724 20.6427 14.8509 20.679 15.3234 20.6306C15.6868 20.5943 16.0563 20.4976 16.4015 20.3768C16.8013 20.2378 17.2011 20.0807 17.5584 19.8691C18.0248 19.5912 18.4851 19.2769 18.891 18.9203C19.3755 18.4913 19.8419 18.0199 20.2356 17.5123C20.6475 16.9804 20.9746 16.3822 21.3138 15.796C21.5863 15.3246 21.8347 14.8411 22.0527 14.3456C22.2647 13.8621 22.4101 13.3545 22.5858 12.8589C22.7432 12.4177 22.9128 11.9887 23.0521 11.5415C23.1551 11.203 23.2157 10.8525 23.2944 10.5081C23.4277 9.90977 23.573 9.31753 23.7002 8.71924C23.785 8.3083 23.8396 7.89131 23.9001 7.48036C23.9728 6.99085 24.0334 6.50739 24.1 6.01788C24.1485 5.64319 24.203 5.26851 24.2272 4.89382C24.2878 3.70329 24.3544 2.5188 24.421 1.32827Z" fill="#A6A9AA"/>
<path d="M32.5981 13.3604V28.6681H23.9366C23.9366 28.2874 23.9305 27.9127 23.9426 27.5441C23.9426 27.4836 23.9911 27.4111 24.0456 27.3749C24.3485 27.1633 24.6695 26.982 24.9542 26.7463C25.3176 26.4502 25.6386 26.1058 25.9899 25.7975C26.1292 25.6767 26.3109 25.586 26.4624 25.4893C26.5048 25.3987 26.535 25.2657 26.6077 25.1751C27.062 24.6312 27.5587 24.1175 27.9827 23.5494C28.4975 22.8605 28.976 22.1353 29.4364 21.4041C29.721 20.9508 29.9512 20.4673 30.1874 19.9899C30.4479 19.4642 30.6962 18.9323 30.9203 18.3945C31.1202 17.9231 31.2838 17.4396 31.4594 16.9562C31.6169 16.5271 31.7925 16.1041 31.9319 15.669C32.0288 15.3668 32.0893 15.0465 32.1681 14.7383C32.2892 14.273 32.4225 13.8076 32.5497 13.3423C32.5678 13.3604 32.586 13.3604 32.5981 13.3604Z" fill="#294099"/>
<path d="M18.776 14.98C18.776 17.1133 17.0376 18.8477 14.8995 18.8477C12.7614 18.8477 11.023 17.1194 11.023 14.98C11.023 12.8467 12.7553 11.1123 14.8995 11.1123C17.0437 11.1123 18.776 12.8407 18.776 14.98Z" fill="#294099"/>
</svg>
