<svg width="102" height="30" viewBox="0 0 102 30" fill="none" xmlns="http://www.w3.org/2000/svg">
<path d="M58.5655 28.6694H50.1098L45.2703 21.8042V28.6694H38.3531V1.83105H45.2703V16.3229L49.6859 9.72966H57.4873L51.2667 18.6254L58.5655 28.6694Z" fill="#294099"/>
<path d="M63.5625 4.78035C63.5625 2.63497 65.2161 1.13623 67.5177 1.13623C69.8618 1.13623 71.5154 2.62893 71.5154 4.78035C71.5154 6.88946 69.8618 8.38216 67.5177 8.38216C65.21 8.3882 63.5625 6.88946 63.5625 4.78035Z" fill="#A6A9AA"/>
<path d="M71.0187 9.72998H64.0228V28.6697H71.0187V9.72998Z" fill="#294099"/>
<path d="M86.0038 1.83105H79.0079V28.6694H86.0038V1.83105Z" fill="#294099"/>
<path d="M93.5327 4.78035C93.5327 2.63497 95.1862 1.13623 97.4879 1.13623C99.832 1.13623 101.486 2.62893 101.486 4.78035C101.486 6.88946 99.832 8.38216 97.4879 8.38216C95.1862 8.3882 93.5327 6.88946 93.5327 4.78035Z" fill="#A6A9AA"/>
<path d="M100.989 9.72998H93.993V28.6697H100.989V9.72998Z" fill="#294099"/>
<path d="M24.4158 1.32339H32.5928C32.5928 1.8552 32.6049 2.39305 32.5867 2.92487C32.5746 3.36603 32.5322 3.80719 32.4898 4.24835C32.4292 4.90103 32.3505 5.55371 32.2899 6.21243C32.2596 6.49042 32.2536 6.77445 32.2172 7.0464C32.1385 7.61447 32.0416 8.1765 31.9568 8.73853C31.878 9.24012 31.8175 9.74776 31.7266 10.2494C31.66 10.612 31.557 10.9746 31.4783 11.3372C31.3935 11.73 31.3329 12.1288 31.236 12.5156C31.1088 12.993 30.9513 13.4644 30.812 13.9358C30.6242 14.5643 30.4546 15.2049 30.2487 15.8273C30.0791 16.3289 29.8732 16.8124 29.6733 17.3019C29.4492 17.8398 29.2372 18.3837 28.9828 18.9034C28.692 19.5077 28.3589 20.1 28.0318 20.6862C27.7593 21.1757 27.4806 21.6591 27.1657 22.1245C26.8204 22.6321 26.4085 23.0974 26.0633 23.6051C25.4939 24.4511 24.7247 25.1159 24.016 25.823C23.6041 26.2339 23.0953 26.5421 22.6168 26.8805C22.2958 27.1102 21.9687 27.3398 21.6295 27.5332C21.1753 27.7991 20.7149 28.0711 20.2304 28.2766C19.6004 28.5425 18.9523 28.7781 18.2921 28.9655C17.6198 29.1589 16.9232 29.2616 16.2206 29.3583C15.3726 29.4731 14.5307 29.4429 13.6888 29.4308C13.0831 29.4187 12.4834 29.2797 11.8838 29.183C11.5022 29.1226 11.1267 29.0501 10.7572 28.9534C10.3574 28.8446 9.96371 28.6996 9.57 28.5606C9.26109 28.4518 8.95218 28.343 8.66145 28.1919C8.07391 27.8898 7.48033 27.5816 6.91702 27.2311C6.39006 26.9047 5.87521 26.5542 5.39671 26.1674C4.56084 25.4845 3.80976 24.711 3.14955 23.8589C2.50145 23.0189 1.91391 22.1486 1.48387 21.1757C1.21736 20.5653 0.94479 19.9489 0.72068 19.3143C0.551083 18.8188 0.466284 18.287 0.326973 17.7793C-0.0182781 16.5102 -0.0303922 15.2109 0.012007 13.9116C0.0301781 13.3133 0.127091 12.715 0.224003 12.1228C0.308802 11.6091 0.417828 11.1015 0.55714 10.5999C0.896334 9.4456 1.30821 8.3155 1.95026 7.28814C2.30762 6.71402 2.64076 6.12178 3.05869 5.60205C3.57354 4.96146 4.16107 4.36922 4.74255 3.78302C5.09386 3.42646 5.48151 3.11221 5.87521 2.82817C6.31738 2.50788 6.77771 2.21175 7.25016 1.94585C7.86192 1.60742 8.48579 1.29317 9.12178 1.00914C9.53972 0.827837 9.99399 0.725101 10.4301 0.592148C10.7935 0.483368 11.1569 0.362502 11.5264 0.296026C12.0292 0.205376 12.5379 0.150986 13.0467 0.10264C13.5858 0.0482499 14.1309 -0.0242698 14.67 -9.65977e-05C15.3969 0.0361633 16.1177 0.144943 16.8324 0.259766C17.432 0.356459 18.0256 0.483368 18.6071 0.652581C19.128 0.803664 19.6428 0.99705 20.1395 1.2267C20.6968 1.48051 21.248 1.75851 21.7567 2.09089C22.1081 2.32053 22.3867 2.65896 22.6956 2.95508C22.7198 2.97926 22.7259 3.03969 22.7198 3.08199C22.6714 3.90992 22.6168 4.73786 22.5623 5.56579C22.5442 5.83774 22.5381 6.10969 22.5018 6.3756C22.423 6.92554 22.3322 7.46944 22.2413 8.01333C22.1686 8.43637 22.1081 8.8594 22.0111 9.27639C21.8839 9.8082 21.7325 10.334 21.5871 10.8658C21.4781 11.2586 21.363 11.6514 21.2419 12.0442C21.1934 12.1893 21.1147 12.3222 21.0238 12.5035C20.9451 12.4249 20.8542 12.3585 20.7997 12.2739C20.188 11.3251 19.3703 10.5878 18.4314 9.97136C17.8076 9.56646 17.1413 9.28243 16.4326 9.07696C15.5907 8.82918 14.7306 8.74457 13.8705 8.82314C13.2284 8.88357 12.6046 9.07091 12.011 9.35495C11.3629 9.66316 10.8056 10.0922 10.3271 10.618C9.93342 11.0471 9.6124 11.5185 9.4004 12.0563C9.22475 12.5035 9.07333 12.9568 8.93401 13.4161C8.87344 13.6215 8.84921 13.8451 8.85527 14.0566C8.86133 14.6731 8.82499 15.3016 8.92796 15.9059C9.01881 16.4377 9.25504 16.9453 9.47309 17.4469C9.8244 18.2386 10.3756 18.8913 11.054 19.4171C11.4235 19.7071 11.8414 19.9489 12.2714 20.1423C12.7075 20.3417 13.186 20.4686 13.6464 20.6197C13.7191 20.6438 13.8099 20.6378 13.8887 20.6378C14.3672 20.6378 14.8457 20.6741 15.3181 20.6257C15.6815 20.5895 16.051 20.4928 16.3963 20.3719C16.796 20.2329 17.1958 20.0758 17.5532 19.8643C18.0196 19.5863 18.4799 19.272 18.8857 18.9155C19.3703 18.4864 19.8367 18.015 20.2304 17.5074C20.6423 16.9756 20.9693 16.3773 21.3085 15.7911C21.5811 15.3197 21.8294 14.8362 22.0475 14.3407C22.2595 13.8572 22.4048 13.3496 22.5805 12.854C22.738 12.4129 22.9076 11.9838 23.0469 11.5366C23.1499 11.1982 23.2104 10.8476 23.2892 10.5032C23.4224 9.90489 23.5678 9.31265 23.695 8.71436C23.7798 8.30341 23.8343 7.88642 23.8949 7.47548C23.9676 6.98597 24.0281 6.50251 24.0948 6.013C24.1432 5.63831 24.1977 5.26363 24.222 4.88894C24.2825 3.69841 24.3492 2.51392 24.4158 1.32339Z" fill="#A6A9AA"/>
<path d="M32.5929 13.3555V28.6632H23.9313C23.9313 28.2825 23.9253 27.9078 23.9374 27.5392C23.9374 27.4787 23.9858 27.4062 24.0403 27.37C24.3432 27.1585 24.6642 26.9772 24.9489 26.7415C25.3123 26.4453 25.6334 26.1009 25.9847 25.7927C26.124 25.6718 26.3057 25.5811 26.4571 25.4845C26.4995 25.3938 26.5298 25.2609 26.6025 25.1702C27.0568 24.6263 27.5534 24.1126 27.9774 23.5446C28.4923 22.8556 28.9708 22.1304 29.4311 21.3992C29.7158 20.9459 29.946 20.4625 30.1822 19.985C30.4426 19.4593 30.691 18.9275 30.9151 18.3896C31.115 17.9182 31.2785 17.4348 31.4542 16.9513C31.6116 16.5222 31.7873 16.0992 31.9266 15.6641C32.0235 15.3619 32.0841 15.0416 32.1628 14.7334C32.284 14.2681 32.4172 13.8027 32.5444 13.3374C32.5626 13.3555 32.5808 13.3555 32.5929 13.3555Z" fill="#294099"/>
<path d="M18.7708 14.9751C18.7708 17.1084 17.0324 18.8429 14.8943 18.8429C12.7561 18.8429 11.0178 17.1145 11.0178 14.9751C11.0178 12.8419 12.7501 11.1074 14.8943 11.1074C17.0384 11.1074 18.7708 12.8358 18.7708 14.9751Z" fill="#294099"/>
</svg>
